PathFileType	4	(X/Y/Z)	Patient4_TMGait_0pt4_03_right_17.trc.trc
DataRate	CameraRate	NumFrames	NumMarkers	Units	OrigDataRate	OrigDataStartFrame	OrigNumFrames
74.866310160428	74.866310160428	5	33	mm	74.866310160428	71	       141
Frame#	Time	Sacral			L.Shoulder			Chest			R.Shoulder			Neck			R.ASIS			L.ASIS			R.Thigh.Superior			R.Thigh.Lateral			R.Thigh.Inferior			R.Patella			L.Thigh.Superior			L.Thigh.Lateral			L.Thigh.Inferior			L.Patella			L.Shank.Superior			L.Shank.Lateral			L.Shank.Inferior			R.Shank.Superior			R.Shank.Lateral			R.Shank.Inferior			R.Heel			R.Midfoot.Superior			R.Midfoot.Lateral			R.Toe			L.Heel			L.Midfoot.Lateral			L.Midfoot.Superior			L.Toe			L.Elbow			L.Wrist			R.Elbow			R.Wrist			
		X1	Y1	Z1	X2	Y2	Z2	X3	Y3	Z3	X4	Y4	Z4	X5	Y5	Z5	X6	Y6	Z6	X7	Y7	Z7	X8	Y8	Z8	X9	Y9	Z9	X10	Y10	Z10	X11	Y11	Z11	X12	Y12	Z12	X13	Y13	Z13	X14	Y14	Z14	X15	Y15	Z15	X16	Y16	Z16	X17	Y17	Z17	X18	Y18	Z18	X19	Y19	Z19	X20	Y20	Z20	X21	Y21	Z21	X22	Y22	Z22	X23	Y23	Z23	X24	Y24	Z24	X25	Y25	Z25	X26	Y26	Z26	X27	Y27	Z27	X28	Y28	Z28	X29	Y29	Z29	X30	Y30	Z30	X31	Y31	Z31	X32	Y32	Z32	X33	Y33	Z33	

71	22.425000000000	854.137715212068	1003.634676202662	517.944209257558	1021.580134907741	1420.669122813701	309.866214959393	1143.515881812039	1352.953906395738	457.500375720692	1087.991497359492	1433.206626244839	639.625678647304	1026.255899066519	1487.787138161229	464.795592640021	1088.436932470473	933.102670546674	616.372022873862	1053.849236768842	953.076317161827	343.872418592264	1089.762941325755	722.181216236796	587.516761459782	988.801209254088	625.873717981118	650.772555248741	1049.184219363775	561.512233822079	569.549039733246	1032.321748254024	474.864426159822	574.027204647864	1127.518967769565	762.850858589417	371.188655955784	1069.885887828265	637.876899485072	294.406321408618	1172.712800346589	577.035956369478	353.403111843996	1193.599129279973	509.014710657877	349.809081556966	1171.299857328688	436.798835751782	337.419944388403	1093.067667970615	314.367153485362	285.655600440130	1171.482327308049	206.711360901058	336.834661221953	990.505491165880	392.222546041071	580.641378987863	906.395342446739	299.982113855438	644.668353202195	929.570527398754	200.535119967897	578.820621099709	776.753803297811	45.060069734188	549.868656416701	947.246191422474	95.350363912921	587.061269000559	858.944511719492	37.054656006254	624.579533377180	1067.278781248468	40.775939493433	617.132643864655	1071.594831188836	40.704431538857	375.123428359145	1142.527627810475	38.800841692532	292.418681903460	1223.347035795825	104.999444585682	314.307392928869	1351.662377453783	60.061474897606	281.439120815813	892.494513217704	1085.404806044326	227.447859166495	888.295941352102	823.854896989054	212.632968448466	1155.054825133700	1093.302477329573	756.170401963038	1384.492616180165	1066.802862415244	656.105828226228	
72	22.438357142857	855.152870480465	1003.162207406029	514.897284734992	1022.267948900308	1419.987984624687	306.715400074755	1143.828303362578	1352.836040147873	454.908340977576	1087.331211830023	1432.969144638863	636.797719971949	1026.248271197283	1487.330019788420	461.743001765805	1089.146971512259	932.732078741056	614.536706717814	1055.660107611342	952.137811685084	342.095004855451	1089.386511440911	721.475079772593	586.546255391566	987.061504172273	625.957724694642	649.423402405605	1047.330445699470	560.886729942109	568.833654247494	1029.889441078421	474.231644803934	573.212424893618	1128.351743619119	760.570558969631	369.906636470835	1069.083494882425	636.131371976752	293.822158202240	1171.514739432588	574.900135226371	353.346052167109	1191.209418351994	506.144000409064	350.117664247530	1168.361247729701	433.907414668663	337.596224367142	1088.723880517302	312.209018597871	286.240570968214	1165.557457371225	203.788538445458	337.898445196254	987.361847187902	392.010464851534	579.890486665002	902.619362495756	300.572233031841	644.292025539369	925.112450809261	200.776404249090	578.702359355390	771.475912673038	45.882713588022	550.141659992278	942.120969973204	95.495539027305	587.218493535786	853.683499020466	37.367769660210	624.685492271703	1061.956588438593	40.535894494031	617.204457181332	1063.215067759558	39.658061976266	376.474324885641	1133.923286156107	37.179465639163	293.485484502644	1215.840101589892	101.839492380314	315.820577314628	1343.701648679304	54.909527452285	282.374365462089	893.161735097636	1084.654990185819	225.252388897398	888.544618987699	823.034708799326	211.135903493333	1154.910793032305	1092.545596345050	752.264294040337	1383.818987374335	1065.058588724093	650.938068834659	
73	22.451714285714	856.109752313714	1002.931330991966	511.905452654518	1023.016041479856	1419.501887028894	303.505092383620	1144.248491739008	1352.833838018375	452.181514012796	1086.936169521703	1432.901968840518	633.855555164612	1026.389878200707	1487.061462185469	458.599232011885	1089.844700125944	932.490024731148	612.413120094539	1057.184095603188	951.533745495155	340.075145934758	1089.227512462578	720.957037637704	585.280170079066	985.827598873455	626.107687179530	647.897399500072	1046.032152844491	560.418916235308	567.879227939312	1028.072043560128	473.622611707240	572.243955020447	1129.079167678417	758.922219786393	368.504064262445	1068.588570841318	635.010147986908	292.965836358233	1170.553051863255	573.399365129716	353.101967152194	1189.128516481742	503.948173212669	350.183082534306	1165.850081399188	431.653849827696	337.514004745664	1085.098448659326	310.628460157372	286.343756735581	1160.289541335187	201.532309883789	338.633075931952	984.736096333111	391.838541103896	579.030534479958	899.246886794271	301.338140679276	643.842294442193	920.918199971912	201.148188265825	578.565377272749	766.261677503044	47.073805218000	550.472102069779	937.130258794930	95.728985428194	587.430426015019	848.484512011197	37.854187814826	624.825206626136	1056.673872040286	40.241331174938	617.284271004664	1055.725832432170	38.917768024222	377.361334309920	1126.303164897494	36.099615084579	294.183442852853	1209.018749656892	99.550234146566	316.999900650659	1336.577353397929	51.096425810397	283.134340186218	894.695083405920	1083.817558657979	222.623093155022	890.038542935968	822.116821648494	209.169081719772	1154.222923978072	1091.894719654779	748.607167657295	1382.638826042841	1062.360893716184	646.364817005291	
74	22.465071428571	856.988677975498	1002.961211115340	508.972848493593	1023.793382433373	1419.248583096153	300.269649891919	1144.765654722718	1352.951570927604	449.325021036461	1086.846172158712	1433.032932969636	630.807526925868	1026.681955290055	1487.006694253630	455.393014401733	1090.503596618431	932.416233102343	609.996103008931	1058.387626053321	951.284718855755	337.768523936284	1089.257417884310	720.666437285863	583.687236857436	985.124188035576	626.336407002855	646.199787649156	1045.326480174701	560.131248536819	566.683296750555	1026.923061125174	473.045821781982	571.163268789276	1129.727912626932	758.011190135928	366.935156029731	1068.447721146970	634.522797516597	291.826125701820	1169.873279004943	572.531441345243	352.564768543728	1187.392068089788	502.425768427796	349.931555503063	1163.782051307692	430.034566084296	337.154278625054	1082.168229155096	309.630191905742	285.970324756500	1155.652459475802	199.934502186887	339.038666979999	982.673479302026	391.712862277747	578.093070011612	896.301044441051	302.296228375126	643.324271096478	917.015976439414	201.664484787881	578.421603287789	761.123082087675	48.675468768223	550.852967717405	932.297106407788	96.060107430735	587.703257558515	843.352551389945	38.536363077566	624.994691248870	1051.433082805742	39.899481619234	617.369476336689	1049.093982950922	38.473001790805	377.836389914019	1119.618366714514	35.500365828020	294.555259467402	1202.863039665499	98.077337468096	317.826309524703	1330.246961971034	48.532138878345	283.689518016435	897.013140070680	1082.957097720582	219.574791177689	892.803712635922	821.163755625497	206.733062631976	1153.018957496557	1091.392125843353	745.203904452192	1380.953478452023	1058.673670122286	642.428362856643	
75	22.478428571429	857.785376710858	1003.237251883767	506.078674091475	1024.561768532422	1419.242957129258	297.034024492169	1145.355681251919	1353.187978298091	446.347619782691	1087.056590570006	1433.368881962838	627.664078031547	1027.105307655357	1487.169138702681	452.149465718634	1091.114615076534	932.535157638125	607.298277529344	1059.284190735822	951.375334250863	335.146391338137	1089.450512684611	720.620505938735	581.756007853593	984.953458103218	626.646289916693	644.343804002145	1045.226348557782	560.026240198857	565.257953094021	1026.476692750534	472.495731976681	570.028762476942	1130.331382724492	757.835449251311	365.147927865935	1068.624380757776	634.590193103817	290.412010385914	1169.452651204660	572.195206924197	351.645414679953	1185.963267702244	501.484694947639	349.321721687130	1162.090683547010	428.966190624629	336.524307373722	1079.801505015486	309.141575181864	285.185949764730	1151.533353206475	198.910926530729	339.152196123042	981.194466527331	391.632103246168	577.116980621463	893.785172682928	303.451659647497	642.744873274854	913.422547188027	202.329815088606	578.283323888451	756.069915765251	50.707406041310	551.270295172660	927.638358569774	96.489690060397	588.036719255997	838.289163047227	39.426941572912	625.186098108311	1046.232850604465	39.525046301635	617.455180778984	1043.185274209504	38.279366329260	377.983232131982	1113.713435296023	35.280454636815	294.667710314202	1197.267352817675	97.288236397424	318.324958524586	1324.575287470300	47.012812321955	284.039633520755	899.996469119124	1082.131944920770	216.130239066586	896.846190219763	820.236674569755	203.834422423920	1151.340678405517	1091.068327600181	742.045623228718	1378.762211086933	1053.978476187230	639.152468197482	
